<mxfile host="app.diagrams.net" modified="2020-06-03T09:31:24.312Z" agent="5.0 (Macintosh; Intel Mac OS X 10_15_5) AppleWebKit/605.1.15 (KHTML, like Gecko) Version/13.1.1 Safari/605.1.15" etag="Cru_Qp-ZDsNad25ohisl" version="13.0.1" type="github">
  <diagram id="Y6lSinv7L4pgqS5vqZRM" name="Page-1">
    <mxGraphModel dx="1225" dy="756" grid="1" gridSize="10" guides="1" tooltips="1" connect="1" arrows="1" fold="1" page="1" pageScale="1" pageWidth="850" pageHeight="1100" math="0" shadow="0">
      <root>
        <mxCell id="0" />
        <mxCell id="1" parent="0" />
        <mxCell id="ZG17BAWp0sAqj_uzSBZP-15" value="" style="group" vertex="1" connectable="0" parent="1">
          <mxGeometry x="30" y="130" width="230" height="500" as="geometry" />
        </mxCell>
        <mxCell id="ZG17BAWp0sAqj_uzSBZP-5" value="Rack 1" style="rounded=0;whiteSpace=wrap;html=1;verticalAlign=top;" vertex="1" parent="ZG17BAWp0sAqj_uzSBZP-15">
          <mxGeometry width="230" height="500" as="geometry" />
        </mxCell>
        <mxCell id="ZG17BAWp0sAqj_uzSBZP-1" value="PP 1-1" style="rounded=0;whiteSpace=wrap;html=1;" vertex="1" parent="ZG17BAWp0sAqj_uzSBZP-15">
          <mxGeometry x="10" y="100" width="210" height="20" as="geometry" />
        </mxCell>
        <mxCell id="ZG17BAWp0sAqj_uzSBZP-2" value="PP 1-2" style="rounded=0;whiteSpace=wrap;html=1;" vertex="1" parent="ZG17BAWp0sAqj_uzSBZP-15">
          <mxGeometry x="10" y="70" width="210" height="20" as="geometry" />
        </mxCell>
        <mxCell id="ZG17BAWp0sAqj_uzSBZP-6" value="MGMT" style="rounded=0;whiteSpace=wrap;html=1;" vertex="1" parent="ZG17BAWp0sAqj_uzSBZP-15">
          <mxGeometry x="10" y="30" width="210" height="20" as="geometry" />
        </mxCell>
        <mxCell id="ZG17BAWp0sAqj_uzSBZP-11" style="edgeStyle=orthogonalEdgeStyle;rounded=0;orthogonalLoop=1;jettySize=auto;html=1;exitX=0;exitY=0.5;exitDx=0;exitDy=0;entryX=0;entryY=0.5;entryDx=0;entryDy=0;strokeColor=#CCCCCC;strokeWidth=2;" edge="1" parent="ZG17BAWp0sAqj_uzSBZP-15" source="ZG17BAWp0sAqj_uzSBZP-8" target="ZG17BAWp0sAqj_uzSBZP-6">
          <mxGeometry relative="1" as="geometry" />
        </mxCell>
        <mxCell id="ZG17BAWp0sAqj_uzSBZP-12" style="edgeStyle=orthogonalEdgeStyle;rounded=0;orthogonalLoop=1;jettySize=auto;html=1;exitX=0.25;exitY=0;exitDx=0;exitDy=0;entryX=0.25;entryY=1;entryDx=0;entryDy=0;strokeColor=#000000;strokeWidth=2;" edge="1" parent="ZG17BAWp0sAqj_uzSBZP-15" source="ZG17BAWp0sAqj_uzSBZP-8" target="ZG17BAWp0sAqj_uzSBZP-1">
          <mxGeometry relative="1" as="geometry" />
        </mxCell>
        <mxCell id="ZG17BAWp0sAqj_uzSBZP-13" style="edgeStyle=orthogonalEdgeStyle;rounded=0;orthogonalLoop=1;jettySize=auto;html=1;exitX=0.5;exitY=0;exitDx=0;exitDy=0;entryX=0.5;entryY=1;entryDx=0;entryDy=0;strokeColor=#CCCC00;strokeWidth=2;" edge="1" parent="ZG17BAWp0sAqj_uzSBZP-15" source="ZG17BAWp0sAqj_uzSBZP-8" target="ZG17BAWp0sAqj_uzSBZP-1">
          <mxGeometry relative="1" as="geometry" />
        </mxCell>
        <mxCell id="ZG17BAWp0sAqj_uzSBZP-14" style="edgeStyle=orthogonalEdgeStyle;rounded=0;orthogonalLoop=1;jettySize=auto;html=1;exitX=0.75;exitY=0;exitDx=0;exitDy=0;entryX=0.75;entryY=1;entryDx=0;entryDy=0;strokeColor=#FF3333;strokeWidth=2;" edge="1" parent="ZG17BAWp0sAqj_uzSBZP-15" source="ZG17BAWp0sAqj_uzSBZP-8" target="ZG17BAWp0sAqj_uzSBZP-1">
          <mxGeometry relative="1" as="geometry" />
        </mxCell>
        <mxCell id="ZG17BAWp0sAqj_uzSBZP-8" value="Server" style="rounded=0;whiteSpace=wrap;html=1;" vertex="1" parent="ZG17BAWp0sAqj_uzSBZP-15">
          <mxGeometry x="10" y="200" width="210" height="60" as="geometry" />
        </mxCell>
        <mxCell id="ZG17BAWp0sAqj_uzSBZP-9" value="Server" style="rounded=0;whiteSpace=wrap;html=1;" vertex="1" parent="ZG17BAWp0sAqj_uzSBZP-15">
          <mxGeometry x="10" y="270" width="210" height="60" as="geometry" />
        </mxCell>
        <mxCell id="ZG17BAWp0sAqj_uzSBZP-10" value="Server" style="rounded=0;whiteSpace=wrap;html=1;" vertex="1" parent="ZG17BAWp0sAqj_uzSBZP-15">
          <mxGeometry x="10" y="430" width="210" height="60" as="geometry" />
        </mxCell>
        <mxCell id="ZG17BAWp0sAqj_uzSBZP-16" value="" style="group" vertex="1" connectable="0" parent="1">
          <mxGeometry x="290" y="130" width="230" height="500" as="geometry" />
        </mxCell>
        <mxCell id="ZG17BAWp0sAqj_uzSBZP-17" value="Rack 2" style="rounded=0;whiteSpace=wrap;html=1;verticalAlign=top;" vertex="1" parent="ZG17BAWp0sAqj_uzSBZP-16">
          <mxGeometry width="230" height="500" as="geometry" />
        </mxCell>
        <mxCell id="ZG17BAWp0sAqj_uzSBZP-18" value="PP 1-1" style="rounded=0;whiteSpace=wrap;html=1;" vertex="1" parent="ZG17BAWp0sAqj_uzSBZP-16">
          <mxGeometry x="10" y="100" width="210" height="20" as="geometry" />
        </mxCell>
        <mxCell id="ZG17BAWp0sAqj_uzSBZP-19" value="PP 1-2" style="rounded=0;whiteSpace=wrap;html=1;" vertex="1" parent="ZG17BAWp0sAqj_uzSBZP-16">
          <mxGeometry x="10" y="70" width="210" height="20" as="geometry" />
        </mxCell>
        <mxCell id="ZG17BAWp0sAqj_uzSBZP-20" value="MGMT" style="rounded=0;whiteSpace=wrap;html=1;" vertex="1" parent="ZG17BAWp0sAqj_uzSBZP-16">
          <mxGeometry x="10" y="30" width="210" height="20" as="geometry" />
        </mxCell>
        <mxCell id="ZG17BAWp0sAqj_uzSBZP-21" style="edgeStyle=orthogonalEdgeStyle;rounded=0;orthogonalLoop=1;jettySize=auto;html=1;exitX=0;exitY=0.5;exitDx=0;exitDy=0;entryX=0;entryY=0.5;entryDx=0;entryDy=0;strokeColor=#CCCCCC;strokeWidth=2;" edge="1" parent="ZG17BAWp0sAqj_uzSBZP-16" source="ZG17BAWp0sAqj_uzSBZP-25" target="ZG17BAWp0sAqj_uzSBZP-20">
          <mxGeometry relative="1" as="geometry" />
        </mxCell>
        <mxCell id="ZG17BAWp0sAqj_uzSBZP-22" style="edgeStyle=orthogonalEdgeStyle;rounded=0;orthogonalLoop=1;jettySize=auto;html=1;exitX=0.25;exitY=0;exitDx=0;exitDy=0;entryX=0.25;entryY=1;entryDx=0;entryDy=0;strokeColor=#000000;strokeWidth=2;" edge="1" parent="ZG17BAWp0sAqj_uzSBZP-16" source="ZG17BAWp0sAqj_uzSBZP-25" target="ZG17BAWp0sAqj_uzSBZP-18">
          <mxGeometry relative="1" as="geometry" />
        </mxCell>
        <mxCell id="ZG17BAWp0sAqj_uzSBZP-23" style="edgeStyle=orthogonalEdgeStyle;rounded=0;orthogonalLoop=1;jettySize=auto;html=1;exitX=0.5;exitY=0;exitDx=0;exitDy=0;entryX=0.5;entryY=1;entryDx=0;entryDy=0;strokeColor=#CCCC00;strokeWidth=2;" edge="1" parent="ZG17BAWp0sAqj_uzSBZP-16" source="ZG17BAWp0sAqj_uzSBZP-25" target="ZG17BAWp0sAqj_uzSBZP-18">
          <mxGeometry relative="1" as="geometry" />
        </mxCell>
        <mxCell id="ZG17BAWp0sAqj_uzSBZP-24" style="edgeStyle=orthogonalEdgeStyle;rounded=0;orthogonalLoop=1;jettySize=auto;html=1;exitX=0.75;exitY=0;exitDx=0;exitDy=0;entryX=0.75;entryY=1;entryDx=0;entryDy=0;strokeColor=#FF3333;strokeWidth=2;" edge="1" parent="ZG17BAWp0sAqj_uzSBZP-16" source="ZG17BAWp0sAqj_uzSBZP-25" target="ZG17BAWp0sAqj_uzSBZP-18">
          <mxGeometry relative="1" as="geometry" />
        </mxCell>
        <mxCell id="ZG17BAWp0sAqj_uzSBZP-25" value="Server" style="rounded=0;whiteSpace=wrap;html=1;" vertex="1" parent="ZG17BAWp0sAqj_uzSBZP-16">
          <mxGeometry x="10" y="200" width="210" height="60" as="geometry" />
        </mxCell>
        <mxCell id="ZG17BAWp0sAqj_uzSBZP-26" value="Server" style="rounded=0;whiteSpace=wrap;html=1;" vertex="1" parent="ZG17BAWp0sAqj_uzSBZP-16">
          <mxGeometry x="10" y="270" width="210" height="60" as="geometry" />
        </mxCell>
        <mxCell id="ZG17BAWp0sAqj_uzSBZP-27" value="Server" style="rounded=0;whiteSpace=wrap;html=1;" vertex="1" parent="ZG17BAWp0sAqj_uzSBZP-16">
          <mxGeometry x="10" y="430" width="210" height="60" as="geometry" />
        </mxCell>
        <mxCell id="ZG17BAWp0sAqj_uzSBZP-28" value="" style="group" vertex="1" connectable="0" parent="1">
          <mxGeometry x="550" y="130" width="230" height="500" as="geometry" />
        </mxCell>
        <mxCell id="ZG17BAWp0sAqj_uzSBZP-29" value="Rack 3" style="rounded=0;whiteSpace=wrap;html=1;verticalAlign=top;" vertex="1" parent="ZG17BAWp0sAqj_uzSBZP-28">
          <mxGeometry width="230" height="500" as="geometry" />
        </mxCell>
        <mxCell id="ZG17BAWp0sAqj_uzSBZP-30" value="PP 1-1" style="rounded=0;whiteSpace=wrap;html=1;" vertex="1" parent="ZG17BAWp0sAqj_uzSBZP-28">
          <mxGeometry x="10" y="100" width="210" height="20" as="geometry" />
        </mxCell>
        <mxCell id="ZG17BAWp0sAqj_uzSBZP-31" value="PP 1-2" style="rounded=0;whiteSpace=wrap;html=1;" vertex="1" parent="ZG17BAWp0sAqj_uzSBZP-28">
          <mxGeometry x="10" y="70" width="210" height="20" as="geometry" />
        </mxCell>
        <mxCell id="ZG17BAWp0sAqj_uzSBZP-32" value="MGMT" style="rounded=0;whiteSpace=wrap;html=1;" vertex="1" parent="ZG17BAWp0sAqj_uzSBZP-28">
          <mxGeometry x="10" y="30" width="210" height="20" as="geometry" />
        </mxCell>
        <mxCell id="ZG17BAWp0sAqj_uzSBZP-33" style="edgeStyle=orthogonalEdgeStyle;rounded=0;orthogonalLoop=1;jettySize=auto;html=1;exitX=0;exitY=0.5;exitDx=0;exitDy=0;entryX=0;entryY=0.5;entryDx=0;entryDy=0;strokeColor=#CCCCCC;strokeWidth=2;" edge="1" parent="ZG17BAWp0sAqj_uzSBZP-28" source="ZG17BAWp0sAqj_uzSBZP-37" target="ZG17BAWp0sAqj_uzSBZP-32">
          <mxGeometry relative="1" as="geometry" />
        </mxCell>
        <mxCell id="ZG17BAWp0sAqj_uzSBZP-34" style="edgeStyle=orthogonalEdgeStyle;rounded=0;orthogonalLoop=1;jettySize=auto;html=1;exitX=0.25;exitY=0;exitDx=0;exitDy=0;entryX=0.25;entryY=1;entryDx=0;entryDy=0;strokeColor=#000000;strokeWidth=2;" edge="1" parent="ZG17BAWp0sAqj_uzSBZP-28" source="ZG17BAWp0sAqj_uzSBZP-37" target="ZG17BAWp0sAqj_uzSBZP-30">
          <mxGeometry relative="1" as="geometry" />
        </mxCell>
        <mxCell id="ZG17BAWp0sAqj_uzSBZP-35" style="edgeStyle=orthogonalEdgeStyle;rounded=0;orthogonalLoop=1;jettySize=auto;html=1;exitX=0.5;exitY=0;exitDx=0;exitDy=0;entryX=0.5;entryY=1;entryDx=0;entryDy=0;strokeColor=#CCCC00;strokeWidth=2;" edge="1" parent="ZG17BAWp0sAqj_uzSBZP-28" source="ZG17BAWp0sAqj_uzSBZP-37" target="ZG17BAWp0sAqj_uzSBZP-30">
          <mxGeometry relative="1" as="geometry" />
        </mxCell>
        <mxCell id="ZG17BAWp0sAqj_uzSBZP-36" style="edgeStyle=orthogonalEdgeStyle;rounded=0;orthogonalLoop=1;jettySize=auto;html=1;exitX=0.75;exitY=0;exitDx=0;exitDy=0;entryX=0.75;entryY=1;entryDx=0;entryDy=0;strokeColor=#FF3333;strokeWidth=2;" edge="1" parent="ZG17BAWp0sAqj_uzSBZP-28" source="ZG17BAWp0sAqj_uzSBZP-37" target="ZG17BAWp0sAqj_uzSBZP-30">
          <mxGeometry relative="1" as="geometry" />
        </mxCell>
        <mxCell id="ZG17BAWp0sAqj_uzSBZP-37" value="Server" style="rounded=0;whiteSpace=wrap;html=1;" vertex="1" parent="ZG17BAWp0sAqj_uzSBZP-28">
          <mxGeometry x="10" y="200" width="210" height="60" as="geometry" />
        </mxCell>
        <mxCell id="ZG17BAWp0sAqj_uzSBZP-38" value="Server" style="rounded=0;whiteSpace=wrap;html=1;" vertex="1" parent="ZG17BAWp0sAqj_uzSBZP-28">
          <mxGeometry x="10" y="270" width="210" height="60" as="geometry" />
        </mxCell>
        <mxCell id="ZG17BAWp0sAqj_uzSBZP-39" value="Server" style="rounded=0;whiteSpace=wrap;html=1;" vertex="1" parent="ZG17BAWp0sAqj_uzSBZP-28">
          <mxGeometry x="10" y="430" width="210" height="60" as="geometry" />
        </mxCell>
        <mxCell id="ZG17BAWp0sAqj_uzSBZP-40" value="" style="group" vertex="1" connectable="0" parent="1">
          <mxGeometry x="800" y="130" width="230" height="500" as="geometry" />
        </mxCell>
        <mxCell id="ZG17BAWp0sAqj_uzSBZP-41" value="Rack 4" style="rounded=0;whiteSpace=wrap;html=1;verticalAlign=top;" vertex="1" parent="ZG17BAWp0sAqj_uzSBZP-40">
          <mxGeometry width="230" height="500" as="geometry" />
        </mxCell>
        <mxCell id="ZG17BAWp0sAqj_uzSBZP-54" style="edgeStyle=orthogonalEdgeStyle;rounded=0;orthogonalLoop=1;jettySize=auto;html=1;exitX=0.25;exitY=1;exitDx=0;exitDy=0;entryX=0.25;entryY=0;entryDx=0;entryDy=0;strokeColor=#000000;strokeWidth=2;" edge="1" parent="ZG17BAWp0sAqj_uzSBZP-40" source="ZG17BAWp0sAqj_uzSBZP-42" target="ZG17BAWp0sAqj_uzSBZP-49">
          <mxGeometry relative="1" as="geometry" />
        </mxCell>
        <mxCell id="ZG17BAWp0sAqj_uzSBZP-59" style="edgeStyle=orthogonalEdgeStyle;rounded=0;orthogonalLoop=1;jettySize=auto;html=1;exitX=0.5;exitY=1;exitDx=0;exitDy=0;entryX=0.5;entryY=0;entryDx=0;entryDy=0;endArrow=classic;endFill=1;strokeColor=#CCCC00;strokeWidth=2;" edge="1" parent="ZG17BAWp0sAqj_uzSBZP-40" source="ZG17BAWp0sAqj_uzSBZP-42" target="ZG17BAWp0sAqj_uzSBZP-50">
          <mxGeometry relative="1" as="geometry" />
        </mxCell>
        <mxCell id="ZG17BAWp0sAqj_uzSBZP-73" style="edgeStyle=orthogonalEdgeStyle;rounded=0;orthogonalLoop=1;jettySize=auto;html=1;exitX=0.75;exitY=1;exitDx=0;exitDy=0;entryX=0.75;entryY=0;entryDx=0;entryDy=0;endArrow=classic;endFill=1;strokeColor=#FF3333;strokeWidth=2;" edge="1" parent="ZG17BAWp0sAqj_uzSBZP-40" source="ZG17BAWp0sAqj_uzSBZP-42" target="ZG17BAWp0sAqj_uzSBZP-52">
          <mxGeometry relative="1" as="geometry" />
        </mxCell>
        <mxCell id="ZG17BAWp0sAqj_uzSBZP-74" style="edgeStyle=orthogonalEdgeStyle;rounded=0;orthogonalLoop=1;jettySize=auto;html=1;exitX=0.5;exitY=1;exitDx=0;exitDy=0;entryX=0.25;entryY=0;entryDx=0;entryDy=0;endArrow=classic;endFill=1;strokeColor=#CCCC00;strokeWidth=2;" edge="1" parent="ZG17BAWp0sAqj_uzSBZP-40" source="ZG17BAWp0sAqj_uzSBZP-42" target="ZG17BAWp0sAqj_uzSBZP-63">
          <mxGeometry relative="1" as="geometry" />
        </mxCell>
        <mxCell id="ZG17BAWp0sAqj_uzSBZP-42" value="PP 1-1" style="rounded=0;whiteSpace=wrap;html=1;" vertex="1" parent="ZG17BAWp0sAqj_uzSBZP-40">
          <mxGeometry x="10" y="100" width="210" height="20" as="geometry" />
        </mxCell>
        <mxCell id="ZG17BAWp0sAqj_uzSBZP-43" value="PP 1-2" style="rounded=0;whiteSpace=wrap;html=1;" vertex="1" parent="ZG17BAWp0sAqj_uzSBZP-40">
          <mxGeometry x="10" y="70" width="210" height="20" as="geometry" />
        </mxCell>
        <mxCell id="ZG17BAWp0sAqj_uzSBZP-44" value="MGMT" style="rounded=0;whiteSpace=wrap;html=1;" vertex="1" parent="ZG17BAWp0sAqj_uzSBZP-40">
          <mxGeometry x="10" y="30" width="210" height="20" as="geometry" />
        </mxCell>
        <mxCell id="ZG17BAWp0sAqj_uzSBZP-45" style="edgeStyle=orthogonalEdgeStyle;rounded=0;orthogonalLoop=1;jettySize=auto;html=1;exitX=0;exitY=0.5;exitDx=0;exitDy=0;entryX=0;entryY=0.5;entryDx=0;entryDy=0;strokeColor=#CCCCCC;strokeWidth=2;" edge="1" parent="ZG17BAWp0sAqj_uzSBZP-40" source="ZG17BAWp0sAqj_uzSBZP-49" target="ZG17BAWp0sAqj_uzSBZP-44">
          <mxGeometry relative="1" as="geometry" />
        </mxCell>
        <mxCell id="ZG17BAWp0sAqj_uzSBZP-49" value="Cumulus STO" style="rounded=0;whiteSpace=wrap;html=1;" vertex="1" parent="ZG17BAWp0sAqj_uzSBZP-40">
          <mxGeometry x="10" y="200" width="210" height="20" as="geometry" />
        </mxCell>
        <mxCell id="ZG17BAWp0sAqj_uzSBZP-66" style="edgeStyle=orthogonalEdgeStyle;rounded=0;orthogonalLoop=1;jettySize=auto;html=1;exitX=0;exitY=0.5;exitDx=0;exitDy=0;entryX=0;entryY=0.5;entryDx=0;entryDy=0;endArrow=none;endFill=0;strokeColor=#CCCCCC;strokeWidth=2;" edge="1" parent="ZG17BAWp0sAqj_uzSBZP-40" source="ZG17BAWp0sAqj_uzSBZP-50" target="ZG17BAWp0sAqj_uzSBZP-44">
          <mxGeometry relative="1" as="geometry" />
        </mxCell>
        <mxCell id="ZG17BAWp0sAqj_uzSBZP-50" value="Cumulus STB" style="rounded=0;whiteSpace=wrap;html=1;" vertex="1" parent="ZG17BAWp0sAqj_uzSBZP-40">
          <mxGeometry x="10" y="230" width="210" height="20" as="geometry" />
        </mxCell>
        <mxCell id="ZG17BAWp0sAqj_uzSBZP-68" style="edgeStyle=orthogonalEdgeStyle;rounded=0;orthogonalLoop=1;jettySize=auto;html=1;exitX=0;exitY=0.5;exitDx=0;exitDy=0;entryX=0;entryY=0.5;entryDx=0;entryDy=0;endArrow=none;endFill=0;strokeColor=#CCCCCC;strokeWidth=2;" edge="1" parent="ZG17BAWp0sAqj_uzSBZP-40" source="ZG17BAWp0sAqj_uzSBZP-52" target="ZG17BAWp0sAqj_uzSBZP-44">
          <mxGeometry relative="1" as="geometry" />
        </mxCell>
        <mxCell id="ZG17BAWp0sAqj_uzSBZP-52" value="FS SRV" style="rounded=0;whiteSpace=wrap;html=1;" vertex="1" parent="ZG17BAWp0sAqj_uzSBZP-40">
          <mxGeometry x="10" y="300" width="210" height="20" as="geometry" />
        </mxCell>
        <mxCell id="ZG17BAWp0sAqj_uzSBZP-53" style="edgeStyle=orthogonalEdgeStyle;rounded=0;orthogonalLoop=1;jettySize=auto;html=1;exitX=0.5;exitY=1;exitDx=0;exitDy=0;strokeColor=#000000;strokeWidth=2;" edge="1" parent="ZG17BAWp0sAqj_uzSBZP-40" source="ZG17BAWp0sAqj_uzSBZP-49" target="ZG17BAWp0sAqj_uzSBZP-49">
          <mxGeometry relative="1" as="geometry" />
        </mxCell>
        <mxCell id="ZG17BAWp0sAqj_uzSBZP-60" value="Cumulus Reserve" style="rounded=0;whiteSpace=wrap;html=1;" vertex="1" parent="ZG17BAWp0sAqj_uzSBZP-40">
          <mxGeometry x="10" y="260" width="210" height="20" as="geometry" />
        </mxCell>
        <mxCell id="ZG17BAWp0sAqj_uzSBZP-61" style="edgeStyle=orthogonalEdgeStyle;rounded=0;orthogonalLoop=1;jettySize=auto;html=1;exitX=0.5;exitY=1;exitDx=0;exitDy=0;endArrow=none;endFill=0;strokeColor=#CCCCCC;strokeWidth=2;" edge="1" parent="ZG17BAWp0sAqj_uzSBZP-40" source="ZG17BAWp0sAqj_uzSBZP-52" target="ZG17BAWp0sAqj_uzSBZP-52">
          <mxGeometry relative="1" as="geometry" />
        </mxCell>
        <mxCell id="ZG17BAWp0sAqj_uzSBZP-62" style="edgeStyle=orthogonalEdgeStyle;rounded=0;orthogonalLoop=1;jettySize=auto;html=1;exitX=0.5;exitY=1;exitDx=0;exitDy=0;endArrow=none;endFill=0;strokeColor=#CCCCCC;strokeWidth=2;" edge="1" parent="ZG17BAWp0sAqj_uzSBZP-40" source="ZG17BAWp0sAqj_uzSBZP-52" target="ZG17BAWp0sAqj_uzSBZP-52">
          <mxGeometry relative="1" as="geometry" />
        </mxCell>
        <mxCell id="ZG17BAWp0sAqj_uzSBZP-63" value="FS FE" style="rounded=0;whiteSpace=wrap;html=1;" vertex="1" parent="ZG17BAWp0sAqj_uzSBZP-40">
          <mxGeometry x="10" y="330" width="210" height="20" as="geometry" />
        </mxCell>
        <mxCell id="ZG17BAWp0sAqj_uzSBZP-70" style="edgeStyle=orthogonalEdgeStyle;rounded=0;orthogonalLoop=1;jettySize=auto;html=1;exitX=0;exitY=0.5;exitDx=0;exitDy=0;entryX=0;entryY=0.5;entryDx=0;entryDy=0;endArrow=none;endFill=0;strokeColor=#CCCCCC;strokeWidth=2;" edge="1" parent="ZG17BAWp0sAqj_uzSBZP-40" source="ZG17BAWp0sAqj_uzSBZP-64" target="ZG17BAWp0sAqj_uzSBZP-44">
          <mxGeometry relative="1" as="geometry" />
        </mxCell>
        <mxCell id="ZG17BAWp0sAqj_uzSBZP-64" value="FS Reserve" style="rounded=0;whiteSpace=wrap;html=1;" vertex="1" parent="ZG17BAWp0sAqj_uzSBZP-40">
          <mxGeometry x="10" y="360" width="210" height="20" as="geometry" />
        </mxCell>
        <mxCell id="ZG17BAWp0sAqj_uzSBZP-55" style="edgeStyle=orthogonalEdgeStyle;rounded=0;orthogonalLoop=1;jettySize=auto;html=1;exitX=0.75;exitY=0;exitDx=0;exitDy=0;entryX=0.25;entryY=0;entryDx=0;entryDy=0;strokeColor=#CCCCCC;strokeWidth=2;endArrow=none;endFill=0;" edge="1" parent="1" source="ZG17BAWp0sAqj_uzSBZP-6" target="ZG17BAWp0sAqj_uzSBZP-20">
          <mxGeometry relative="1" as="geometry" />
        </mxCell>
        <mxCell id="ZG17BAWp0sAqj_uzSBZP-56" style="edgeStyle=orthogonalEdgeStyle;rounded=0;orthogonalLoop=1;jettySize=auto;html=1;exitX=0.75;exitY=0;exitDx=0;exitDy=0;entryX=0.25;entryY=0;entryDx=0;entryDy=0;strokeColor=#CCCCCC;strokeWidth=2;endArrow=none;endFill=0;" edge="1" parent="1" source="ZG17BAWp0sAqj_uzSBZP-20" target="ZG17BAWp0sAqj_uzSBZP-32">
          <mxGeometry relative="1" as="geometry" />
        </mxCell>
        <mxCell id="ZG17BAWp0sAqj_uzSBZP-57" style="edgeStyle=orthogonalEdgeStyle;rounded=0;orthogonalLoop=1;jettySize=auto;html=1;exitX=0.75;exitY=0;exitDx=0;exitDy=0;entryX=0.25;entryY=0;entryDx=0;entryDy=0;strokeColor=#CCCCCC;strokeWidth=2;endArrow=none;endFill=0;" edge="1" parent="1" source="ZG17BAWp0sAqj_uzSBZP-32" target="ZG17BAWp0sAqj_uzSBZP-44">
          <mxGeometry relative="1" as="geometry" />
        </mxCell>
        <mxCell id="ZG17BAWp0sAqj_uzSBZP-58" style="edgeStyle=orthogonalEdgeStyle;rounded=0;orthogonalLoop=1;jettySize=auto;html=1;exitX=0.75;exitY=0;exitDx=0;exitDy=0;entryX=0.143;entryY=0;entryDx=0;entryDy=0;entryPerimeter=0;strokeColor=#CCCCCC;strokeWidth=2;endArrow=none;endFill=0;" edge="1" parent="1" source="ZG17BAWp0sAqj_uzSBZP-44" target="ZG17BAWp0sAqj_uzSBZP-6">
          <mxGeometry relative="1" as="geometry">
            <Array as="points">
              <mxPoint x="968" y="110" />
              <mxPoint x="70" y="110" />
            </Array>
          </mxGeometry>
        </mxCell>
        <mxCell id="ZG17BAWp0sAqj_uzSBZP-67" style="edgeStyle=orthogonalEdgeStyle;rounded=0;orthogonalLoop=1;jettySize=auto;html=1;exitX=0;exitY=0.5;exitDx=0;exitDy=0;endArrow=none;endFill=0;strokeColor=#CCCCCC;strokeWidth=2;" edge="1" parent="1" source="ZG17BAWp0sAqj_uzSBZP-60">
          <mxGeometry relative="1" as="geometry">
            <mxPoint x="810" y="170" as="targetPoint" />
            <Array as="points">
              <mxPoint x="790" y="400" />
              <mxPoint x="790" y="170" />
            </Array>
          </mxGeometry>
        </mxCell>
        <mxCell id="ZG17BAWp0sAqj_uzSBZP-69" style="edgeStyle=orthogonalEdgeStyle;rounded=0;orthogonalLoop=1;jettySize=auto;html=1;exitX=0;exitY=0.5;exitDx=0;exitDy=0;endArrow=none;endFill=0;strokeColor=#CCCCCC;strokeWidth=2;" edge="1" parent="1" source="ZG17BAWp0sAqj_uzSBZP-63">
          <mxGeometry relative="1" as="geometry">
            <mxPoint x="790" y="280" as="targetPoint" />
          </mxGeometry>
        </mxCell>
      </root>
    </mxGraphModel>
  </diagram>
</mxfile>
